<svg width="12" height="12" viewBox="0 0 12 12" fill="none" xmlns="http://www.w3.org/2000/svg">
<g id="Close Square">
<path id="Fill 1" fill-rule="evenodd" clip-rule="evenodd" d="M2.0041 11.2278C1.6841 11.2278 1.3641 11.1062 1.12077 10.8612C0.632433 10.3728 0.632433 9.58283 1.12077 9.09449L9.10743 1.10783C9.59577 0.619494 10.3858 0.619494 10.8741 1.10783C11.3624 1.59616 11.3624 2.38616 10.8741 2.87449L2.88743 10.8612C2.6441 11.1062 2.3241 11.2278 2.0041 11.2278Z" fill="black"/>
<path id="Fill 3" fill-rule="evenodd" clip-rule="evenodd" d="M9.99414 11.2327C9.67414 11.2327 9.35414 11.111 9.1108 10.866L1.11747 2.871C0.629137 2.38267 0.629137 1.59267 1.11747 1.10433C1.60747 0.616 2.39747 0.616 2.88414 1.10433L10.8775 9.09933C11.3658 9.58767 11.3658 10.3777 10.8775 10.866C10.6341 11.111 10.3125 11.2327 9.99414 11.2327Z" fill="black"/>
</g>
</svg>
