<svg width="35" height="32" viewBox="0 0 35 32" fill="none" xmlns="http://www.w3.org/2000/svg">
<g id="SmileySad">
<path id="Vector" d="M17.4131 3C14.7316 3 12.1104 3.76244 9.88088 5.1909C7.65134 6.61935 5.91363 8.64968 4.88749 11.0251C3.86134 13.4006 3.59286 16.0144 4.11598 18.5362C4.6391 21.0579 5.93034 23.3743 7.82641 25.1924C9.72247 27.0105 12.1382 28.2486 14.7681 28.7502C17.398 29.2518 20.124 28.9944 22.6014 28.0104C25.0787 27.0265 27.1961 25.3603 28.6858 23.2224C30.1756 21.0846 30.9707 18.5712 30.9707 16C30.9669 12.5533 29.5373 9.24882 26.9956 6.81163C24.4538 4.37445 21.0076 3.00364 17.4131 3ZM17.4131 27C15.1442 27 12.9262 26.3549 11.0397 25.1462C9.15315 23.9375 7.68278 22.2195 6.8145 20.2095C5.94623 18.1995 5.71905 15.9878 6.16169 13.854C6.60433 11.7202 7.69692 9.7602 9.30128 8.22183C10.9056 6.68345 12.9497 5.6358 15.175 5.21136C17.4004 4.78692 19.707 5.00476 21.8032 5.83733C23.8994 6.66989 25.691 8.07979 26.9516 9.88873C28.2121 11.6977 28.8849 13.8244 28.8849 16C28.8815 18.9164 27.6717 21.7123 25.5211 23.7745C23.3704 25.8367 20.4545 26.9967 17.4131 27ZM11.1557 13.5C11.1557 13.2033 11.2475 12.9133 11.4194 12.6666C11.5913 12.42 11.8356 12.2277 12.1214 12.1142C12.4073 12.0006 12.7218 11.9709 13.0253 12.0288C13.3287 12.0867 13.6074 12.2296 13.8262 12.4393C14.045 12.6491 14.194 12.9164 14.2543 13.2074C14.3147 13.4983 14.2837 13.7999 14.1653 14.074C14.0469 14.3481 13.8464 14.5824 13.5892 14.7472C13.3319 14.912 13.0295 15 12.7201 15C12.3052 15 11.9073 14.842 11.6139 14.5607C11.3205 14.2794 11.1557 13.8978 11.1557 13.5ZM23.6704 13.5C23.6704 13.7967 23.5787 14.0867 23.4068 14.3334C23.2349 14.58 22.9906 14.7723 22.7048 14.8858C22.4189 14.9994 22.1044 15.0291 21.8009 14.9712C21.4975 14.9133 21.2187 14.7704 21 14.5607C20.7812 14.3509 20.6322 14.0836 20.5718 13.7926C20.5115 13.5017 20.5424 13.2001 20.6608 12.926C20.7792 12.6519 20.9798 12.4176 21.237 12.2528C21.4943 12.088 21.7967 12 22.1061 12C22.521 12 22.9189 12.158 23.2123 12.4393C23.5056 12.7206 23.6704 13.1022 23.6704 13.5ZM23.5297 21.5C23.6051 21.6138 23.6558 21.7411 23.6786 21.8742C23.7014 22.0073 23.696 22.1434 23.6625 22.2744C23.629 22.4054 23.5683 22.5285 23.4839 22.6364C23.3995 22.7443 23.2932 22.8348 23.1714 22.9022C23.0497 22.9697 22.9149 23.0129 22.7753 23.0292C22.6357 23.0454 22.4941 23.0345 22.359 22.9969C22.2239 22.9593 22.0981 22.8959 21.9893 22.8105C21.8804 22.7251 21.7906 22.6195 21.7254 22.5C20.7516 20.8862 19.2212 20 17.4131 20C15.605 20 14.0745 20.8875 13.1007 22.5C13.0355 22.6195 12.9458 22.7251 12.8369 22.8105C12.728 22.8959 12.6023 22.9593 12.4672 22.9969C12.3321 23.0345 12.1905 23.0454 12.0509 23.0292C11.9112 23.0129 11.7765 22.9697 11.6547 22.9022C11.5329 22.8348 11.4267 22.7443 11.3423 22.6364C11.2579 22.5285 11.1971 22.4054 11.1637 22.2744C11.1302 22.1434 11.1247 22.0073 11.1476 21.8742C11.1704 21.7411 11.2211 21.6138 11.2965 21.5C12.6379 19.2762 14.8671 18 17.4131 18C19.959 18 22.1882 19.275 23.5297 21.5Z" fill="#46A39A"/>
</g>
</svg>
