<svg width="35" height="32" viewBox="0 0 35 32" fill="none" xmlns="http://www.w3.org/2000/svg">
<g id="SmileyMeh">
<path id="Vector" d="M17.4556 3C14.7741 3 12.1529 3.76244 9.92336 5.1909C7.69382 6.61935 5.95611 8.64968 4.92997 11.0251C3.90382 13.4006 3.63534 16.0144 4.15846 18.5362C4.68158 21.0579 5.97282 23.3743 7.86889 25.1924C9.76495 27.0105 12.1807 28.2486 14.8106 28.7502C17.4405 29.2518 20.1665 28.9944 22.6438 28.0104C25.1212 27.0265 27.2386 25.3603 28.7283 23.2224C30.218 21.0846 31.0132 18.5712 31.0132 16C31.0094 12.5533 29.5798 9.24882 27.0381 6.81163C24.4963 4.37445 21.0501 3.00364 17.4556 3ZM17.4556 27C15.1867 27 12.9687 26.3549 11.0822 25.1462C9.19563 23.9375 7.72526 22.2195 6.85698 20.2095C5.98871 18.1995 5.76153 15.9878 6.20417 13.854C6.64681 11.7202 7.7394 9.7602 9.34376 8.22183C10.9481 6.68345 12.9922 5.6358 15.2175 5.21136C17.4428 4.78692 19.7494 5.00476 21.8456 5.83733C23.9418 6.66989 25.7335 8.07979 26.994 9.88873C28.2546 11.6977 28.9274 13.8244 28.9274 16C28.9239 18.9164 27.7142 21.7123 25.5636 23.7745C23.4129 25.8367 20.497 26.9967 17.4556 27ZM23.7129 20C23.7129 20.2652 23.6031 20.5196 23.4075 20.7071C23.2119 20.8946 22.9466 21 22.67 21H12.2411C11.9645 21 11.6992 20.8946 11.5037 20.7071C11.3081 20.5196 11.1982 20.2652 11.1982 20C11.1982 19.7348 11.3081 19.4804 11.5037 19.2929C11.6992 19.1054 11.9645 19 12.2411 19H22.67C22.9466 19 23.2119 19.1054 23.4075 19.2929C23.6031 19.4804 23.7129 19.7348 23.7129 20ZM11.1982 13.5C11.1982 13.2033 11.29 12.9133 11.4618 12.6666C11.6337 12.42 11.8781 12.2277 12.1639 12.1142C12.4497 12.0006 12.7643 11.9709 13.0677 12.0288C13.3712 12.0867 13.6499 12.2296 13.8687 12.4393C14.0875 12.6491 14.2365 12.9164 14.2968 13.2074C14.3572 13.4983 14.3262 13.7999 14.2078 14.074C14.0894 14.3481 13.8889 14.5824 13.6316 14.7472C13.3744 14.912 13.0719 15 12.7625 15C12.3477 15 11.9498 14.842 11.6564 14.5607C11.363 14.2794 11.1982 13.8978 11.1982 13.5ZM23.7129 13.5C23.7129 13.7967 23.6212 14.0867 23.4493 14.3334C23.2774 14.58 23.0331 14.7723 22.7472 14.8858C22.4614 14.9994 22.1469 15.0291 21.8434 14.9712C21.5399 14.9133 21.2612 14.7704 21.0424 14.5607C20.8237 14.3509 20.6747 14.0836 20.6143 13.7926C20.5539 13.5017 20.5849 13.2001 20.7033 12.926C20.8217 12.6519 21.0222 12.4176 21.2795 12.2528C21.5367 12.088 21.8392 12 22.1486 12C22.5635 12 22.9614 12.158 23.2547 12.4393C23.5481 12.7206 23.7129 13.1022 23.7129 13.5Z" fill="#46A39A"/>
</g>
</svg>
