<svg width="34" height="32" viewBox="0 0 34 32" fill="none" xmlns="http://www.w3.org/2000/svg">
<g id="Smiley">
<path id="Vector" d="M17.2834 3C14.602 3 11.9808 3.76244 9.75124 5.1909C7.5217 6.61935 5.78399 8.64968 4.75785 11.0251C3.7317 13.4006 3.46322 16.0144 3.98634 18.5362C4.50947 21.0579 5.8007 23.3743 7.69677 25.1924C9.59284 27.0105 12.0086 28.2486 14.6385 28.7502C17.2684 29.2518 19.9944 28.9944 22.4717 28.0104C24.9491 27.0265 27.0665 25.3603 28.5562 23.2224C30.0459 21.0846 30.8411 18.5712 30.8411 16C30.8373 12.5533 29.4077 9.24882 26.8659 6.81163C24.3242 4.37445 20.878 3.00364 17.2834 3ZM17.2834 27C15.0145 27 12.7966 26.3549 10.91 25.1462C9.02351 23.9375 7.55314 22.2195 6.68486 20.2095C5.81659 18.1995 5.58941 15.9878 6.03205 13.854C6.47469 11.7202 7.56728 9.7602 9.17164 8.22183C10.776 6.68345 12.8201 5.6358 15.0454 5.21136C17.2707 4.78692 19.5773 5.00476 21.6735 5.83733C23.7697 6.66989 25.5614 8.07979 26.8219 9.88873C28.0825 11.6977 28.7553 13.8244 28.7553 16C28.7518 18.9164 27.5421 21.7123 25.3914 23.7745C23.2408 25.8367 20.3249 26.9967 17.2834 27ZM11.0261 13.5C11.0261 13.2033 11.1178 12.9133 11.2897 12.6666C11.4616 12.42 11.7059 12.2277 11.9918 12.1142C12.2776 12.0007 12.5922 11.9709 12.8956 12.0288C13.1991 12.0867 13.4778 12.2296 13.6966 12.4393C13.9154 12.6491 14.0644 12.9164 14.1247 13.2074C14.1851 13.4983 14.1541 13.7999 14.0357 14.074C13.9173 14.3481 13.7168 14.5824 13.4595 14.7472C13.2023 14.912 12.8998 15 12.5904 15C12.1755 15 11.7776 14.842 11.4843 14.5607C11.1909 14.2794 11.0261 13.8978 11.0261 13.5ZM23.5408 13.5C23.5408 13.7967 23.4491 14.0867 23.2772 14.3334C23.1053 14.58 22.861 14.7723 22.5751 14.8858C22.2893 14.9994 21.9747 15.0291 21.6713 14.9712C21.3678 14.9133 21.0891 14.7704 20.8703 14.5607C20.6515 14.3509 20.5025 14.0836 20.4422 13.7926C20.3818 13.5017 20.4128 13.2001 20.5312 12.926C20.6496 12.6519 20.8501 12.4176 21.1074 12.2528C21.3646 12.088 21.6671 12 21.9765 12C22.3914 12 22.7893 12.158 23.0826 12.4393C23.376 12.7206 23.5408 13.1022 23.5408 13.5ZM23.4013 19.5C22.0599 21.7238 19.8294 23 17.2834 23C14.7375 23 12.5083 21.725 11.1669 19.5C11.0914 19.3862 11.0408 19.2589 11.0179 19.1258C10.9951 18.9927 11.0006 18.8566 11.034 18.7256C11.0675 18.5946 11.1283 18.4715 11.2126 18.3636C11.297 18.2557 11.4033 18.1653 11.5251 18.0978C11.6469 18.0303 11.7816 17.9871 11.9212 17.9708C12.0609 17.9546 12.2025 17.9655 12.3376 18.0031C12.4726 18.0407 12.5984 18.1041 12.7073 18.1895C12.8162 18.2749 12.9059 18.3805 12.9711 18.5C13.9449 20.1138 15.4753 21 17.2834 21C19.0916 21 20.622 20.1125 21.5945 18.5C21.7328 18.2703 21.9606 18.1026 22.2278 18.0339C22.495 17.9652 22.7798 18.0011 23.0194 18.1338C23.259 18.2664 23.4338 18.4848 23.5054 18.741C23.5771 18.9972 23.5396 19.2703 23.4013 19.5Z" fill="#46A39A"/>
</g>
</svg>
